<svg width="27" height="28" viewBox="0 0 27 28" fill="none" xmlns="http://www.w3.org/2000/svg">
<ellipse cx="13.3951" cy="14" rx="13.3951" ry="14" fill="#1E293B"/>
<path d="M19.334 10.9831C18.9331 11.1693 18.5099 11.2857 18.0645 11.3556C18.5099 11.0762 18.8663 10.6339 19.0222 10.0985C18.599 10.3546 18.1313 10.5408 17.619 10.6572C17.2181 10.2149 16.639 9.93555 16.0154 9.93555C14.8126 9.93555 13.8326 10.9598 13.8326 12.2169C13.8326 12.4031 13.8549 12.5661 13.8994 12.729C12.0953 12.6359 10.4693 11.728 9.37796 10.3313C9.19977 10.6805 9.08841 11.0529 9.08841 11.472C9.08841 12.2634 9.46705 12.9618 10.0684 13.3808C9.71205 13.3576 9.37796 13.2644 9.06613 13.1015V13.1248C9.06613 14.2422 9.82342 15.1733 10.8257 15.3828C10.6475 15.4294 10.4471 15.4527 10.2466 15.4527C10.113 15.4527 9.95706 15.4294 9.82342 15.4061C10.113 16.314 10.9148 16.9891 11.8725 16.9891C11.1153 17.5943 10.1798 17.9668 9.15523 17.9668C8.97704 17.9668 8.79886 17.9668 8.64294 17.9435C9.62296 18.5953 10.7589 18.9678 12.0062 18.9678C16.0376 18.9678 18.2427 15.476 18.2427 12.4497C18.2427 12.3566 18.2427 12.2402 18.2427 12.1471C18.6659 11.8444 19.0445 11.4487 19.334 10.9831Z" fill="white"/>
</svg>
