<svg width="28" height="28" viewBox="0 0 28 28" fill="none" xmlns="http://www.w3.org/2000/svg">
<ellipse cx="13.9753" cy="14" rx="13.3951" ry="14" fill="#1E293B"/>
<path d="M13.9757 8.44721C15.7063 8.44721 15.9112 8.45398 16.5949 8.48656C17.0059 8.49182 17.4131 8.5707 17.7986 8.71979C18.0782 8.83248 18.3321 9.00511 18.544 9.22656C18.7558 9.44802 18.921 9.71339 19.0288 10.0056C19.1715 10.4085 19.247 10.8341 19.252 11.2637C19.2828 11.9782 19.2896 12.1924 19.2896 14.0011C19.2896 15.8098 19.2832 16.024 19.252 16.7385C19.247 17.1681 19.1715 17.5936 19.0288 17.9966C18.921 18.2888 18.7558 18.5541 18.544 18.7756C18.3321 18.997 18.0782 19.1697 17.7986 19.2824C17.4131 19.4315 17.0059 19.5103 16.5949 19.5156C15.9115 19.5479 15.7066 19.5549 13.9757 19.5549C12.2449 19.5549 12.0399 19.5482 11.3566 19.5156C10.9456 19.5103 10.5384 19.4315 10.1529 19.2824C9.87332 19.1697 9.61942 18.997 9.40753 18.7756C9.19565 18.5541 9.03048 18.2888 8.92266 17.9966C8.78002 17.5936 8.70454 17.1681 8.69951 16.7385C8.66865 16.024 8.66186 15.8098 8.66186 14.0011C8.66186 12.1924 8.66834 11.9782 8.69951 11.2637C8.70454 10.8341 8.78002 10.4085 8.92266 10.0056C9.03048 9.71339 9.19565 9.44802 9.40753 9.22656C9.61942 9.00511 9.87332 8.83248 10.1529 8.71979C10.5384 8.5707 10.9456 8.49182 11.3566 8.48656C12.0403 8.4543 12.2452 8.44721 13.9757 8.44721ZM13.9757 7.22656C12.2165 7.22656 11.9949 7.2343 11.3035 7.26721C10.7656 7.27839 10.2333 7.38485 9.72945 7.58205C9.29719 7.75226 8.90568 8.019 8.58223 8.36366C8.25216 8.70184 7.99673 9.11127 7.83377 9.56334C7.64509 10.09 7.54323 10.6463 7.53253 11.2085C7.50167 11.9304 7.49426 12.162 7.49426 14.0008C7.49426 15.8395 7.50167 16.0711 7.53315 16.7937C7.54385 17.3559 7.64571 17.9122 7.83439 18.4388C7.99717 18.8908 8.25239 19.3002 8.58223 19.6385C8.90586 19.9832 9.29759 20.25 9.73007 20.4201C10.234 20.6173 10.7662 20.7238 11.3041 20.7349C11.9955 20.7672 12.2162 20.7756 13.9764 20.7756C15.7365 20.7756 15.9572 20.7679 16.6486 20.7349C17.1865 20.7238 17.7188 20.6173 18.2227 20.4201C18.6531 20.2457 19.044 19.9794 19.3703 19.6381C19.6966 19.2968 19.9512 18.8882 20.1177 18.4382C20.3064 17.9115 20.4083 17.3553 20.419 16.793C20.4498 16.0711 20.4572 15.8395 20.4572 14.0008C20.4572 12.162 20.4498 11.9304 20.4183 11.2079C20.4076 10.6456 20.3058 10.0893 20.1171 9.56269C19.9543 9.11068 19.6991 8.70126 19.3693 8.36301C19.0456 8.01828 18.6539 7.75153 18.2214 7.5814C17.7175 7.3842 17.1853 7.27775 16.6473 7.26656C15.9566 7.2343 15.735 7.22656 13.9757 7.22656Z" fill="white"/>
<path d="M13.9771 10.5234C13.3188 10.5234 12.6753 10.7275 12.1279 11.1097C11.5806 11.492 11.154 12.0353 10.902 12.6709C10.6501 13.3066 10.5842 14.006 10.7126 14.6808C10.8411 15.3556 11.1581 15.9755 11.6235 16.462C12.089 16.9485 12.6821 17.2798 13.3277 17.414C13.9734 17.5482 14.6426 17.4794 15.2508 17.2161C15.859 16.9528 16.3788 16.5069 16.7445 15.9348C17.1103 15.3627 17.3055 14.6902 17.3055 14.0021C17.3055 13.0795 16.9548 12.1947 16.3306 11.5423C15.7064 10.8899 14.8598 10.5234 13.9771 10.5234ZM13.9771 16.2602C13.5498 16.2602 13.1321 16.1278 12.7768 15.8797C12.4215 15.6315 12.1446 15.2789 11.981 14.8663C11.8175 14.4537 11.7747 13.9996 11.8581 13.5616C11.9415 13.1236 12.1472 12.7213 12.4494 12.4055C12.7515 12.0897 13.1365 11.8746 13.5556 11.7875C13.9747 11.7003 14.4091 11.7451 14.8039 11.916C15.1986 12.0869 15.5361 12.3763 15.7735 12.7476C16.0109 13.119 16.1376 13.5555 16.1376 14.0021C16.1376 14.601 15.9099 15.1754 15.5048 15.5988C15.0996 16.0223 14.5501 16.2602 13.9771 16.2602Z" fill="white"/>
<path d="M17.4363 11.1981C17.8659 11.1981 18.2141 10.8341 18.2141 10.3852C18.2141 9.93621 17.8659 9.57227 17.4363 9.57227C17.0068 9.57227 16.6586 9.93621 16.6586 10.3852C16.6586 10.8341 17.0068 11.1981 17.4363 11.1981Z" fill="white"/>
</svg>
