<svg width="28" height="28" viewBox="0 0 28 28" fill="none" xmlns="http://www.w3.org/2000/svg">
<ellipse cx="13.7654" cy="14" rx="13.3951" ry="14" fill="#1E293B"/>
<path fill-rule="evenodd" clip-rule="evenodd" d="M14.3479 7.22656C10.9121 7.22656 8.14795 10.1155 8.14795 13.7065C8.14795 16.5684 9.93042 18.9984 12.3845 19.8624C12.6945 19.9164 12.7979 19.7274 12.7979 19.5384C12.7979 19.3764 12.7979 18.9714 12.7979 18.4314C11.0671 18.8364 10.7054 17.5674 10.7054 17.5674C10.4212 16.8114 10.0079 16.6224 10.0079 16.6224C9.4396 16.2174 10.0596 16.2174 10.0596 16.2174C10.6796 16.2714 11.0154 16.8924 11.0154 16.8924C11.5579 17.8914 12.462 17.5944 12.8237 17.4324C12.8754 17.0004 13.0304 16.7304 13.2112 16.5684C11.8421 16.4064 10.3954 15.8394 10.3954 13.3555C10.3954 12.6535 10.6279 12.0595 11.0412 11.6275C10.9896 11.4655 10.7571 10.8175 11.0929 9.89952C11.0929 9.89952 11.6096 9.73752 12.7979 10.5745C13.2887 10.4395 13.8312 10.3585 14.3479 10.3585C14.8645 10.3585 15.407 10.4395 15.8978 10.5745C17.0861 9.73752 17.6028 9.89952 17.6028 9.89952C17.9386 10.7905 17.732 11.4385 17.6545 11.6275C18.042 12.0865 18.3003 12.6535 18.3003 13.3555C18.3003 15.8394 16.8536 16.3794 15.4587 16.5414C15.6912 16.7304 15.872 17.1354 15.872 17.7294C15.872 18.5934 15.872 19.2954 15.872 19.5114C15.872 19.6734 15.9753 19.8894 16.3112 19.8354C18.7653 18.9984 20.5478 16.5684 20.5478 13.7065C20.5478 10.1155 17.7836 7.22656 14.3479 7.22656Z" fill="white"/>
</svg>
